<?xml version="1.0" encoding="UTF-8"?><svg id="b" xmlns="http://www.w3.org/2000/svg" viewBox="0 0 374.38141517 49.05476815"><defs><style>.c{stroke:#2b4691;stroke-dasharray:0 0 40 25;stroke-linecap:round;stroke-linejoin:round;stroke-width:5px;}.c,.d{fill:none;}</style></defs><g><polygon class="d" points="177.02748494 39.30476815 177.02748494 31.12288338 171.03462606 31.12288338 176.70326619 39.30476815 177.02748494 39.30476815"/><polygon class="d" points="333.45228963 39.30476815 333.45228963 31.12306649 327.45961385 31.12306649 333.12807088 39.30476815 333.45228963 39.30476815"/><path d="m42.08705525,10.77246094c.91455078-1.95410156,2.16455078-3.43701172,3.75-4.44873047,1.58496094-1.01123047,3.38330078-1.51708984,5.39501953-1.51708984,1.11328125,0,2.16699219.15332031,3.16162109.46044922.99414062.30664062,1.89501953.76123047,2.70166016,1.36328125.80664062.60253906,1.48876953,1.33544922,2.04541016,2.19921875s.9375,1.86376953,1.14208984,3h5.31835938c-.29589844-1.875-.86376953-3.54248047-1.70458984-5.00292969-.84130859-1.45996094-1.90332031-2.69873047-3.1875-3.71582031s-2.72998047-1.79003906-4.33789062-2.31835938c-1.60839844-.52832031-3.33837891-.79248047-5.19042969-.79248047-3.01171875,0-5.69921875.71875-8.0625,2.15625-2.36376953,1.4375-4.22753906,3.49414062-5.59082031,6.17041016-1.36376953,2.67626953-2.04541016,5.87792969-2.04541016,9.60498047h0l5.23291016.00006104v-.00006104c0-2.81787109.45703125-5.20458984,1.37207031-7.15917969Z"/><path d="m37.51869588,40.71980721c1.35791016,2.68164063,3.21875,4.74121094,5.58251953,6.17871094,2.36328125,1.4375,5.05664062,2.15625,8.07958984,2.15625,1.92041016,0,3.69287109-.28417969,5.31787109-.85253906,1.625-.56738281,3.07128906-1.37207031,4.33837891-2.41210938,1.26708984-1.0390625,2.30664062-2.27734375,3.11914062-3.71582031.8125-1.4375,1.36083984-3.01367188,1.64501953-4.72949219l-5.31835938-.01757812c-.21582031,1.11425781-.60498047,2.09960938-1.16748047,2.95800781-.5625.85742188-1.24707031,1.58203125-2.05419922,2.17285156-.80664062.59082031-1.70703125,1.03710938-2.70166016,1.33789062-.99414062.30175781-2.04248047.45214844-3.14453125.45214844-1.98876953,0-3.77880859-.5-5.36962891-1.5s-2.84375-2.47753906-3.75830078-4.43164063c-.91503906-1.95507812-1.37207031-4.35247803-1.37207031-7.19378662l-5.23291016-.00006104c0,3.71630859.67871094,6.91552734,2.03662109,9.59716797Z"/><polygon points="94.57826619 .68824749 94.57826619 15.85865764 77.1744576 15.85865764 77.1744576 .68824749 71.90785604 .68824749 71.90785604 18.14289837 99.8619576 18.1429594 99.8619576 .68824749 94.57826619 .68824749"/><polygon points="71.90785604 48.57722908 77.1744576 48.57722908 77.1744576 33.3555494 94.57826619 33.3555494 94.57826619 48.57722908 99.8619576 48.57722908 99.8619576 31.12276131 71.90785604 31.12270028 71.90785604 48.57722908"/><polygon points="117.70039754 .68821697 111.4190865 18.14292888 116.7692452 18.14292888 120.6154366 7.02903728 120.88789754 7.02903728 124.72725301 18.14292888 130.06666951 18.14298992 123.78535848 .68821697 117.70039754 .68821697"/><polygon points="125.78755574 34.90730721 129.55580525 34.90730721 129.55580525 39.33894783 127.31850057 39.33894783 130.50990682 48.57722908 136.10072713 48.57722908 129.81953816 31.12282235 124.48012166 31.12276131 125.78755574 34.90730721"/><polygon points="111.4190865 34.90730721 111.4190865 39.33894783 113.67873006 39.33894783 115.21236043 34.90730721 111.4190865 34.90730721"/><polygon points="111.4190865 34.90730721 115.21236043 34.90730721 116.52211385 31.12276131 111.17195516 31.12276131 104.89076619 48.57722908 110.4815865 48.57722908 113.67873006 39.33894783 111.4190865 39.33894783 111.4190865 34.90730721"/><polygon points="115.21236043 34.90730721 113.67873006 39.33894783 127.31850057 39.33894783 125.78755574 34.90730721 115.21236043 34.90730721"/><polygon points="129.55580525 34.90730721 125.78755574 34.90730721 127.31850057 39.33894783 129.55580525 39.33894783 129.55580525 34.90730721"/><rect x="141.12904744" y="31.12282235" width="5.26757812" height="17.45440674"/><rect x="141.12904744" y=".78721609" width="5.26757812" height="17.45477295"/><polygon points="158.94154744 .33743296 154.06654744 .33743296 154.06654744 17.59420767 159.33412557 17.59420767 159.33412557 9.64456186 159.65736775 9.64456186 165.30464559 17.59420767 171.03462606 17.5942687 158.94154744 .33743296"/><rect x="154.06654744" y="31.12282235" width="5.26757812" height="17.45440674"/><rect x="177.02748494" y=".23843384" width="5.21582031" height="17.45483398"/><polygon points="177.02748494 39.30476815 176.70326619 39.30476815 171.03462606 31.12288338 165.30464559 31.12282235 177.40248494 48.57722908 182.24330525 48.57722908 182.24330525 31.12288338 177.02748494 31.12288338 177.02748494 39.30476815"/><polygon points="189.91225057 48.57722908 210.99818807 48.57722908 210.99818807 44.0430494 195.17982869 44.0430494 195.17982869 31.12288338 189.91225057 31.12288338 189.91225057 48.57722908"/><rect x="189.91225057" y=".23843384" width="5.26757812" height="17.45483398"/><polygon points="222.36684041 15.85856609 222.36684041 5.22233562 238.98598104 5.22233562 238.98598104 .68815594 217.09926229 .68815594 217.09926229 18.14305096 237.84340291 18.14305096 237.84340291 15.85856609 222.36684041 15.85856609"/><polygon points="216.9972115 48.57722908 239.08803182 48.57722908 239.08803182 44.0430494 222.26478963 44.0430494 222.26478963 33.3555494 237.74135213 33.3555494 237.74135213 31.12294442 216.9972115 31.12294442 216.9972115 48.57722908"/><polygon points="255.94669669 .64216604 249.66532462 18.09706106 255.01542228 18.0971221 258.86173575 6.98298635 259.13419669 6.98298635 262.97367423 18.0971221 268.14831226 18.38703909 262.03170045 .64228811 255.94669669 .64216604"/><polygon points="264.19575887 34.90730721 267.96400838 34.90730721 267.96400838 39.33894783 265.72670369 39.33894783 268.91810994 48.57722908 274.50893025 48.57722908 268.22780232 31.12300545 262.88844686 31.12300545 264.19575887 34.90730721"/><polygon points="249.82728963 34.90730721 249.82728963 39.33894783 252.08693318 39.33894783 253.62056356 34.90730721 249.82728963 34.90730721"/><polygon points="267.96400838 34.90730721 264.19575887 34.90730721 265.72670369 39.33894783 267.96400838 39.33894783 267.96400838 34.90730721"/><polygon points="249.82728963 34.90730721 253.62056356 34.90730721 254.9301949 31.12300545 249.58009725 31.12294442 243.29896932 48.57722908 248.88978963 48.57722908 252.08693318 39.33894783 249.82728963 39.33894783 249.82728963 34.90730721"/><polygon points="253.62056356 34.90730721 252.08693318 39.33894783 265.72670369 39.33894783 264.19575887 34.90730721 253.62056356 34.90730721"/><rect x="282.53725057" y="31.12300545" width="2.26757812" height="4.2442627"/><path d="m299.395649,48.57722908h6l-7.73547363-14.12561035c-1.51550293.56787109-3.30029297.87145996-5.36376953.90124512l7.09924316,13.22436523Z"/><polygon points="282.53725057 31.12300545 279.53725057 31.12300545 279.53725057 48.57722908 284.80482869 48.57722908 284.80482869 35.36726815 282.53725057 35.36726815 282.53725057 31.12300545"/><path d="m290.94057088,32.82722908l1.35583496,2.52563477c2.06347656-.02978516,3.8482666-.33337402,5.36376953-.90124512l-.88952637-1.62438965h-5.83007812Z"/><path d="m284.80482869,35.36726815h7.15917969c.11566162,0,.21838379-.01275635.33239746-.0144043l-1.35583496-2.52563477h5.83007812l.88952637,1.62438965c.35803223-.13415527.71759033-.2668457,1.04504395-.43103027,1.4473877-.72564697,2.58599854-1.69970703,3.44592285-2.89752197l-17.34631348-.00006104v4.2442627Z"/><path d="m285.29982381,5.20518474h6.61328125c1.73828125,0,3.14453125.25878906,4.21875.77539062,1.07421875.51757812,1.86328125,1.25878906,2.36914062,2.22460938s.75878906,2.10791016.75878906,3.42626953c0,1.30664062-.25,2.42626953-.75,3.35791016s-1.28710938,1.64208984-2.36035156,2.13085938c-1.07421875.48828125-2.46386719.73291016-4.16796875.73291016,0,0,10.7733667.13835544,10.82698956.06196869.14709268-.2095362.2891141-.42312379.41422137-.6503476.89257812-1.61914062,1.33789062-3.49707031,1.33789062-5.63330078,0-2.14794922-.44238281-4.04248047-1.32910156-5.68457031s-2.22460938-2.92919922-4.01464844-3.86083984c-1.7890625-.93164062-4.03710938-1.39794922-6.74121094-1.39794922h-12.44335938v17.45495605h5.26757812"/><polygon points="315.36635213 .6880949 310.49135213 .6880949 310.49135213 18.14311199 315.75893025 18.14311199 315.75893025 9.99522381 316.08217244 9.99522381 321.72957234 18.14311199 327.45961385 18.14311199 315.36635213 .6880949"/><rect x="310.49135213" y="31.12306649" width="5.26757812" height="17.4541626"/><polygon points="333.45228963 31.12306649 333.45228963 39.30476815 333.12807088 39.30476815 327.45961385 31.12306649 321.72957234 31.12306649 333.82728963 48.57722908 338.66810994 48.57722908 338.66810994 31.12312752 333.45228963 31.12306649"/><rect x="333.68352132" y=".68806438" width="5.21582031" height="17.45504761"/></g><line class="c" x1="2.5" y1="24.35333009" x2="371.88141517" y2="23.55671071"/></svg>